<svg xmlns="http://www.w3.org/2000/svg" xmlns:xlink="http://www.w3.org/1999/xlink" preserveAspectRatio="xMidYMid meet" version="1.0" viewBox="-0.4 0.0 306.5 279.5" zoomAndPan="magnify" style="fill: rgb(36, 74, 117);" original_string_length="12209" width="265.0091777107733px" height="241.39926915108623px"><g id="__id0_sd3ykil5r7"><path d="M181.651566,130.429199c-0.110352-0.037598-0.228516-0.072754-0.394531-0.120117 c-5.066406-1.456055-10.37207-0.030273-14.046875,2.629883c-1.536133-2.623535-3.864258-4.677246-6.837891-5.975098 c-0.196289-0.085693-0.396973-0.155029-0.595703-0.232788c-0.100098-6.212769-3.413574-10.82019-9.524414-13.108521 c-3.113281-1.17041-6.189453-1.533203-9.138672-1.078125c-0.112305,0.015137-0.219727,0.033203-0.328125,0.053223l0.540039,2.951172 l-0.661133-2.929688c-6.087891,1.109375-10.770508,5.678223-12.952156,10.666016 c-3.005859-2.218262-6.555664-3.320801-10.394531-3.174805c-7.453125,0.285645-14.126953,5.42334-15.868164,12.216309 c-0.975586,3.807129-1.616211,13.63916,13.474609,22.687988c0.02832,0.01709,0.057617,0.03418,0.086914,0.050293l0.350586,0.198242 c3.257812,1.914551,7.088867,3.699219,11.396484,5.308594c0.260742,0.096191,0.573242,0.21875,0.927734,0.356934 c2.485359,0.971191,6.029305,2.355957,9.196297,2.355957c1.84375,0,3.560547-0.469727,4.865234-1.76416 c0.593262-0.588867,2.764648-3.064453,5.392578-6.568237c1.407227,1.747192,2.992676,3.526001,4.78125,5.324097 c0.161133,0.161621,0.352539,0.36084,0.569336,0.585449c2.208984,2.29248,5.728516,5.945312,9.423828,5.945312 c0.498047,0,0.999023-0.066406,1.5-0.210938c1.591797-0.459473,9.819336-3.62207,16.731445-7.981934 c0.454102-0.289551,0.910156-0.585449,1.352539-0.883301c0.029297-0.02002,0.058594-0.040039,0.086914-0.061035 c0.025391-0.016113,0.050781-0.032715,0.076172-0.049805c6.557617-4.438477,10.109375-9.011719,10.556641-13.59375 c0.327148-3.34375-0.951172-6.495605-3.797852-9.367676C186.415237,132.635742,184.137894,131.212891,181.651566,130.429199z M137.570511,157.210449c-0.541016,0.230957-2.258789,0.256348-7.701172-1.870117 c-0.394531-0.154297-0.744141-0.290527-1.022461-0.393066c-3.971687-1.484375-7.486336-3.118164-10.494148-4.884766 l-0.371094-0.210449c-8.167969-4.905762-12.075195-10.749512-10.719727-16.035156 c1.079102-4.212891,5.501953-7.527344,10.288086-7.710938c3.669922-0.138184,7.016602,1.585938,9.382812,4.867676 c0.758789,1.053223,2.105476,1.498535,3.344734,1.104492c1.236328-0.394043,2.079102-1.538086,2.088867-2.835938 c0.02832-3.768066,3.608398-9.669434,9.3125-10.709961l0.208984-0.038086c0.037109-0.004395,0.074219-0.009277,0.111328-0.015137 c1.927734-0.301758,3.995117-0.046875,6.145508,0.76123c3.384277,1.267212,5.169922,3.277344,5.55957,6.341431 c-4.350586-0.002075-8.508301,1.700073-11.125977,4.867065c-1.922363,2.324951-5.458984,8.682739,0.90918,19.346191 C140.509964,153.918701,138.03096,156.726074,137.570511,157.210449z M186.246292,143.442871 c-0.257812,2.643555-3.081055,5.914062-7.948242,9.208496c-0.027344,0.018555-0.054245,0.038727-0.082031,0.057617 c-0.023087,0.015686-0.881836,0.58252-1.282227,0.836914c-6.383789,4.027344-13.830078,6.844238-15.072266,7.250977 c-0.609375-0.09668-1.978516-0.910156-5.050781-4.098145c-0.245117-0.254883-0.462891-0.47998-0.640625-0.658203 c-2.484375-2.498047-4.568359-4.941895-6.208008-7.285645l-0.197266-0.276855 c-4.121094-6.012207-5.054688-11.19043-2.561523-14.206543c1.433594-1.734863,3.918945-2.680176,6.529297-2.680176 c1.425781,0,2.889648,0.282227,4.239258,0.871582c1.966797,0.858398,4.458984,2.693359,5.164062,6.560059 c0.227539,1.250977,1.219727,2.22168,2.474609,2.423828c1.262695,0.205078,2.501953-0.40918,3.110352-1.525391 c1.146484-2.103516,5.892578-5.280273,10.84082-3.856934l0.104492,0.026367c0.048828,0.018066,0.098633,0.035156,0.148438,0.050781 c1.560547,0.485352,3.022461,1.407715,4.34375,2.740723C185.710159,140.448242,186.393753,141.939941,186.246292,143.442871z M302.775574,227.101562c0,0-0.363281-5.893066-0.364258-5.907227c-1.0625-17.027832-1.28418-18.684082-5.567383-21.501465 l-0.217773-0.143066c-12.186523-8.055664-24.614258-14.197266-37.772461-20.699219 c-11.415512-5.640869-23.207504-11.482666-35.210434-18.818115c-0.067383-9.363281-0.151367-17.62439-0.257324-23.831421 c1.265625,1.24231,2.531738,2.487671,3.804688,3.749146c1.558594,1.543945,9.552734,9.272461,13.854492,9.769531 c4.803711,0.548828,9.113281-6.553711,9.586914-7.367188c0.376953-0.647949,0.904297-1.36084,1.462891-2.115723 c1.681641-2.274414,3.775391-5.104492,3.249023-8.547363c-0.619141-4.050293-4.864258-7.805664-10.794922-12.669434 c-1.475586-1.210938-2.870117-2.354492-3.792969-3.243652c-26.863281-25.883789-55.166992-50.927246-84.125-74.435547 c-4.324707-3.510864-7.891602-5.566406-11.099609-6.357178V18.621582h6.28418c1.657227,0,3-1.343262,3-3s-1.342773-3-3-3h-6.28418V3 c0-1.656738-1.342773-3-3-3s-3,1.343262-3,3v9.621582h-6.28418c-1.657227,0-3,1.343262-3,3s1.342773,3,3,3h6.28418V35.03833 c-5.88916,1.667236-11.361816,8.119629-19.705086,17.97583c-12.021484,14.200195-32.141602,37.967285-70.866211,69.776855 c-3.677734,3.020996-6.303711,5.491699-7.160156,7.732422c-0.998047,2.61377,0.445312,5.832031,11.640625,17.996094 c0.470703,0.511719,0.824219,0.895508,1.010742,1.108398c1.064453,1.210449,2.457031,1.872559,4.029297,1.915039 c0.058594,0.001953,0.116211,0.002441,0.174805,0.002441c3.577148,0,7.649414-2.978027,16.527344-12.041016 c0.069336-0.070557,0.135742-0.139404,0.20459-0.209839c-0.040527,7.404419-0.036133,15.981079,0.024902,25.184692 c-17.545898,8.772461-34.118164,16.073486-46.318359,21.445557c-14.388672,6.336914-20.839844,9.224609-22.93457,11.260254 c-2.59668,2.510254-5.109375,6.886719-5.899414,21.782227c0,0.011719-0.000977,0.024414-0.000977,0.036621 c-0.668945,12.595703-0.044922,31.046875,1.90625,56.405762c0.113281,1.472656,1.282227,2.643555,2.753906,2.759766 c5.19629,0.41217,11.616699,0.769104,18.87793,1.005798c0.040039,0.001587,0.077148,0.01178,0.117188,0.01178h0.017578 c0.017578-0.000122,0.033203-0.005066,0.050781-0.005432c5.780273,0.186401,12.09033,0.296448,18.743162,0.296448 c12.883301,0,27.047852-0.416382,41.122559-1.482178c0.34082,0.109497,0.691406,0.18335,1.052246,0.18335 c8.285156,0,98.157234-0.220703,100.705086-0.257812c7.255859-0.094727,31.072266-0.441406,32.899414-0.929688 c0.155273-0.041443,0.307129-0.091431,0.458008-0.147217c11.46582,0.554138,25.365723,0.495117,38.827133,0.43335 c16.192383-0.072266,32.943359-0.147461,44.958008,0.87207c0.084961,0.006836,0.169922,0.010742,0.253906,0.010742 c0.787109,0,1.545898-0.30957,2.110352-0.867188c0.624023-0.618164,0.946289-1.478516,0.881836-2.354492 C304.34491,252.695801,303.400574,237.293457,302.775574,227.101562z M256.195496,184.22998 c12.985352,6.416016,25.249023,12.476562,37.12207,20.324707l0.229492,0.151367 c1.443359,0.949463,1.80957,1.19873,2.497559,11.064209c-11.055664-6.666992-23.01709-12.802979-35.585449-19.247803 c-12.12645-6.217773-24.670883-12.64624-36.743149-19.785889v-9.661987 C234.833694,173.658936,245.659378,179.023193,256.195496,184.22998z M70.895699,135.306152 c-7.814453,7.978516-10.884766,10.013672-12.061523,10.220703c-0.219727-0.244629-0.555664-0.610352-0.979492-1.070312 c-7.179688-7.801758-9.450195-11.007324-10.113281-12.322754c0.541016-0.710938,1.857422-2.103516,5.053711-4.728027 c10.941406-8.987305,20.411133-17.339355,28.645996-25.024414c0.04834-0.043945,0.097656-0.085327,0.142578-0.132324 c21.124512-19.727783,34.087891-35.041016,42.821777-45.358398c7.218758-8.526855,11.988289-14.160156,15.855476-15.813477 c2.708008-1.156738,5.634766-0.723145,12.588867,4.921875c28.826172,23.401367,57.001953,48.331543,83.742188,74.097656 c1.095703,1.055664,2.581055,2.273438,4.152344,3.5625c2.917969,2.393066,8.348724,6.847794,8.667969,8.937012 c0.149002,0.975159-1.067383,2.621094-2.141602,4.072754c-0.629883,0.851562-1.28125,1.731934-1.824219,2.664551 c-1.238281,2.126953-3.071289,3.974121-3.879883,4.375c-1.776367-0.601074-6.787109-4.685547-10.15332-8.020508 c-3.058594-3.030762-9.130997-8.947845-9.140137-8.956421c-21.909836-20.547829-42.619141-39.525513-68.513184-60.703735 c-4.884766-3.995117-8.766602-6.38623-12.944336-5.929688c-5.866211,0.629883-10.356445,6.283691-20.193367,18.670898 C110.975777,90.916016,96.397652,109.272949,70.895699,135.306152z M10.335154,201.493652 c1.414062-1.374512,11.013672-5.602051,21.177734-10.077637c11.646482-5.128906,27.261229-12.00708,43.952637-20.261475 c0.033203,3.571045,0.074707,7.212158,0.125488,10.893066c-18.73291,9.574951-36.90625,17.500854-50.276367,23.329346 c-8.064941,3.515625-14.312988,6.240723-18.637207,8.391357C7.701364,204.047852,9.629587,202.175415,10.335154,201.493652z M6.182321,220.823853c3.734375-2.187622,11.706543-5.664795,21.529785-9.946899 c12.818357-5.587402,30.025877-13.09082,47.979492-22.14917c0.159668,9.66333,0.381348,19.476929,0.674805,28.921143 c1.078125,34.643921,2.570312,48.61676,3.898926,54.592163c-6.422852,0.442444-12.839844,0.751343-19.122559,0.949585 c0.162109-8.87384-0.036133-16.716553-1.224609-24.990967c-0.831055-5.793945-3.349609-16.222168-10.884766-20.963379 c-4.118164-2.591309-8.742188-3.413086-13.017578-2.31543c-4.339842,1.114258-8.078123,4.160156-10.526365,8.574707 c-5.311523,9.561035-4.947266,24.566895-4.681641,35.524414c0,0,0.059082,2.706116,0.07666,4.048706 c-4.774902-0.184937-9.128418-0.421692-12.932129-0.689331C6.272653,249.871338,5.67988,232.560547,6.182321,220.823853z M26.8874,273.265747c-0.018066-1.471802-0.081543-4.391235-0.081543-4.391235 c-0.249023-10.268555-0.59082-24.331543,3.928711-32.466797c1.666014-3.00293,4.007811-4.965332,6.773436-5.675293 c2.664062-0.683105,5.623047-0.12207,8.330078,1.582031c4.009766,2.523438,6.977539,8.623535,8.140625,16.737793 c1.145508,7.968018,1.325195,15.603394,1.159668,24.296692C45.049995,273.560852,35.442574,273.499207,26.8874,273.265747z M119.957222,265.703613c-0.039062-4.083496-0.079102-8.306641-0.21582-12.688477l-0.010742-0.328125 c-0.459961-14.839355-1.09082-35.162109,7.319336-47.068359c6.805672-9.643066,19.787117-12.309082,31.572273-6.481934 c11.126953,5.500488,14.741211,19.281738,15.77832,24.95166c2.939941,16.073853,2.346191,31.636414,1.661133,47.994995h-56.02491 C120.00312,269.925049,119.977242,267.850891,119.957222,265.703613z M185.522659,271.921387 c-1.222168,0.017883-2.37793,0.03241-3.453613,0.044373c0.693848-16.595032,1.274902-32.326355-1.766113-48.95697 c-1.491211-8.149414-5.944336-22.786621-19.021484-29.250977c-14.493164-7.164062-30.583984-3.709473-39.13282,8.399902 c-9.567383,13.545898-8.901367,35.028809-8.415039,50.715332l0.302734,19.298096H86.393745 c-2.535156-7.638489-4.193848-47.415894-4.793945-87.965454c0.025391-0.227417,0.01709-0.45813-0.010254-0.688965 c-0.082031-5.658081-0.143555-11.325928-0.183594-16.921631c0.01709-0.192261,0.016113-0.385864-0.004395-0.580566 c-0.080566-11.570923-0.070312-22.809326,0.03418-32.967285c21.896484-22.862549,34.979004-39.33252,43.884766-50.546753 c7.960945-10.024414,12.766609-16.074707,16.13575-16.437012c1.830078-0.192383,4.209961,1.095703,8.504883,4.608887 c25.419922,20.790405,46.138184,39.108154,67.296875,59.558594c0.466309,17.083252,0.675781,105.765137,0.675781,105.765137 c0.15918,25.499512-1.016602,33.023926-1.765625,35.23291C212.117386,271.459473,197.981644,271.759277,185.522659,271.921387z M257.762878,271.277832c-3.889145,0.017395-7.81395,0.034424-11.705063,0.03717 c-0.017578-1.968018-0.105469-6.263733-0.105469-6.263733c-0.248047-9.261719-0.586914-21.946777,3.866211-29.225098 c3.354492-5.492676,9.491196-6.96582,15.275375-3.662598c3.961914,2.264648,6.891602,7.725586,8.037109,14.985352 c1.302734,8.20813,1.325195,16.114014,1.103027,24.098022C268.811707,271.229492,263.256042,271.253967,257.762878,271.277832z M280.235046,271.286743c0.227539-8.237122,0.195312-16.424316-1.178223-25.075806 c-0.839844-5.327148-3.384766-14.912598-10.986328-19.256836c-8.53418-4.875-18.363266-2.458008-23.372055,5.742676 c-5.37793,8.79248-5.011719,22.503418-4.744141,32.515625c0,0,0.085938,4.17511,0.103027,6.093079 c-6.19873-0.026794-12.203613-0.113159-17.714355-0.320923c1.102051-5.304565,1.633301-15.416199,1.51123-35.025574V183.7146 c11.251465,6.508179,22.686523,12.414429,33.866684,18.147217c13.853516,7.102905,26.953125,13.83252,38.797363,21.251709 c0,0,1.741699,28.374268,3.236816,48.798096C293.918152,271.534058,287.257507,271.359558,280.235046,271.286743z" style="fill: inherit;"/></g></svg>