<svg xmlns="http://www.w3.org/2000/svg" xmlns:xlink="http://www.w3.org/1999/xlink" data-name="Calque 2" preserveAspectRatio="xMidYMid meet" version="1.0" viewBox="-0.4 -0.1 1001.8 1619.0" zoomAndPan="magnify" style="fill: rgb(36, 74, 117);" original_string_length="32038" width="207.07302283990094px" height="334.5820598580835px"><g data-name="Calque 1" id="__id1_sd3ykil5r7"><path d="M996.77,1040.63l-.05-.05c-2.2-2.57-5.2-3.92-8.47-5.51-11.49-6-24.23-10.61-35.94-16.6-72.15-39.24-141.1-88.75-200.99-146.07-25.08-21.72-46.52-47.29-70.71-69.99-6.45-6.62-2.98-12.14-2.15-19.81.57-8.43-.31-17.74,1.27-26.08.68-4.53-.24-8.79-.8-13.55-.37-4.52-.1-9.66-.46-14.07-.28-4.54-1.18-8.81-2.23-13.19-2.36-9.8-4.95-20.75-5.97-31.02-2-23.16.44-47.47,2.32-70.37.85-8.21,1.06-16.75,2.55-24.82,1.33-6.21,3.34-11.61,6.84-16.73,3.67-5.41,9.89-9.59,13.98-14.92,4.28-5.43,5.56-4.86,7.4,2.51,1.21,5.29,3.12,9.95,5.71,15.12,1.91,3.9,3.9,8.06,6.7,11.31,2.51,3.02,5.26,5.43,8.03,8.36,5.87,6.63,11.47,13.15,18.43,18.79,6.13,5.07,12.57,10.15,20.38,12.23,4.8,1.62,9.98,3.6,15.06,2.44,4.41-.92,8.44-3.21,11.65-6.45,2.31-2.39,3.88-5.4,5.76-8.16,3.2-4.94,7.53-9.2,9.73-14.84,1-2.58,1.71-5.26,2.59-7.84,1.77-5.39,3.61-10.48,3.7-16.15-.02-17.29-4.16-37.76-8.58-55.2-3.22-11.58-6.51-24.65-11.58-35.97-.99-2.43-1.99-4.96-2.07-7.61-.15-5.72,5.09-9.95,5.93-15.37,1.29-8.4-5.99-14.53-9.06-21.63-5.54-13.39-6.3-28.54-9.34-42.6-2.86-13.45-6.8-27.76-12.11-40.72-2.16-4.81-5.73-8.48-8.49-13.14-2.09-3.43-3.5-7.15-5.29-10.72-2.68-5.41-6.44-10.45-9.93-15.47-5.64-7.85-11.21-15.34-17.06-22.82-10.84-13.54-21.31-27.62-33.42-39.07-3.68-3.36-8.34-5.66-12.71-2.64-7.01,5.19-12.28,13.38-17.41,20.33-11.81,13.81-23.15,28.86-36.19,41.76-2.22,2.16-4.82,4.12-7.17,5.99-2.15,1.46-7.39,7.96-9.29,3.5-2.41-6.89.38-14.69-1.46-21.74-1.55-5.38-7.75-.95-10.26,1.78-3.4,3.24-5.19,7.66-6.57,12.11-1.46,4.48-2.84,9.1-3.98,13.59-3.49,14.32-9.36,28.05-12.06,42.55-7.74,39.13-9.56,82.76-5.79,123.45.91,12.41-1.85,13.17-13.16,14.17-8.69,1.16-17.22,4.88-26.14,3.42-4.52-.7-5.9-3.62-6.27-8.42-.56-9.61-.06-19.8.36-29.38.59-12.55,3.06-25.29,5.74-37.34,3.12-12.57,3.47-25.5,6.23-38.12,4.98-19.11,12.56-37.54,20.45-55.64,1.45-3.34,1.94-6.6,1.25-10.16-.59-3.16-1.45-6.41-1.13-9.68.35-4.67,2.19-8.96,2.99-13.58.88-3.97.42-8.2.99-12.16,2.21-11.16,4.2,6.58,6.15,3.82.83-2.6-.64-6.11-1.8-8.63-1.27-2.74-2.77-5.58-4.18-8.13-2.11-4.34-8.94-10.22-11.96-3.49-1.33,3.58-1.09,7.74-1.64,11.52-.26,2.83-.16,5.25-.76,7.12-1.08,3.63-3.04,3.45-5.09.85-1.66-2.16-2.56-4.76-3.81-7.68-1.39-3.22-2.87-6.44-3.73-9.84-.09-.35-.17-.69-.24-.99-.48-2.04-.34-3.05.39-2.55,2.53,2.39,3.84,7.2,5.46,10.15.74,1.38,1.12,2.23,1.6,1.76.27-.3.56-1.11.91-2.36.34-1.18.73-2.82,1.11-4.23.92-3.42,2.24-6.54,4.31-8.57,1.58-1.66,3.83-2.38,5.7-3.61,1.4-.92,2.38-2.23,2.44-3.92.15-3.21-2.34-8.68-2.41-12.24-.11-3.27,1.29-1.22,2.01.62,1.83,4.64,3.19,9.69,5.31,14.26,2.38,5.42,5.47,10.44,8.32,15.56,2.9,4.94,6.4,16.51,10.08,4.7,1.21-4.05,3.35-7.91,2.53-12.19-.76-4.02-3.47-6.83-5.45-10.62-1.26-2.28-2.4-4.59-3.53-6.94-2.48-5.93-8.46-12.13-4.26-18.41,3.07-4.42,7.67-7.77,11.08-11.92,8.03-9.81-2.97-3.49-7.66-.63-9.76,5.23-17.63,13.23-27.53,18.19-14.67,7.16-20.86-5.4-26.39-16.46-1.8-3.31-4.07-6.38-6.03-9.58-2.17-3.51-3.94-6.89-6.38-10.17-1.72-2.25-3.84-4.16-5.6-6.2-4.3-4.57-2.67-11.01-3.17-16.71-.4-5.58-2.14-9.86-2.63-14.96-.4-4.2-.09-8.24-.66-12.59-.49-5.42-3.17-10.45-3.37-15.87-.13-4.32,1.31-8.58,2.02-12.83.89-4.83.67-10.21,1.48-14.78.58-3.43,1.63-6.71,2.19-10.14.33-1.96.53-4.16.81-5.83.03-.2.07-.4.11-.59.28-1.47.71-2.24,1.41-2.34.55-.09,1.26.23,2.2.74.41.23.87.49,1.36.76,1.34.77,2.81,1.44,4.34,1.82,7.55,2.01,15.1-2.05,22.57-2.51,4.02-.22,8.9-.23,13.11.13,5.56.69,8.82,2.13,9.69,8.38.61,3.94.6,8.8.81,13.07.25,3.27-.08,6.75,1.17,9.65,2.02,3.69,6.2,2.97,10.42,4.86,15.99,5.66,10.52,38.76,25.26,27.76,2.89-2.13,5.54-4.92,8.14-7.42,2.75-2.68,5.45-4.88,7.71-7.43,2.9-3.15,5.03-7.01,8.18-9.93,2.49-2.36,6.41-3.55,9.55-2.26,2.97,1.19,4.81,4.15,5.45,7.27,1.74,8.76-1.23,18.51-6.16,25.97-1.64,2.5-3.53,4.73-5.75,6.73-1.85,1.67-4.31,3.37-5.99,5.11-1.31,1.46-2.1,2.88-.85,4.07,3.26,2.01,7.47-.32,11.21-.22,5.95.03,13.51,4.61,15.3,10.37.52,1.55.79,3.15,1.04,4.78,1.92,16.29,15.5,15.42,4.66,33.35-3.48,6.56-9.79,10.91-15.5,15.47-10.35,7.9-21.07,15.29-31.58,22.9-4.69,3.13-8.82,7.65-10.85,12.83-.68,1.7-1.2,3.46-1.66,5.24-1.06,4.37-2.32,11.54.64,15.26,2.56,2.52,5.2-1.55,6.94-3.4,1.42-1.7,2.88-3.42,4.56-4.88,2.19-2.02,5.06-3.42,6.92-5.25,1.44-1.4,2.75-3.38,1.95-5.37-.71-1.47-2.37-2.24-4.1-2.36-1.35-.2-4.6.18-5.47-.04-.18-.17.13-.39.28-.53.53-.43,1.75-1.17,3.24-1.63.74-.23,1.54-.37,2.32-.37,5.11,0,7.82,5.53,9.53,9.72,2.13,4.84,3.43,9.45,4.03,14.87.41,2.98.98,13.45,5.89,7.76,2.62-3.24,4.19-7.12,7.09-10.25,5.4-6,12.27-11.64,17.51-17.82,5.63-6.77,10.11-14.6,15.42-21.77,3.5-4.89,7.22-9.66,11.5-13.99,3.44-3.78,7.57-7.54,8.97-12.49,1.15-4.28-.25-8.69-1.72-12.75-1.06-2.84-2.03-5.7-3.05-8.57-2.92-8.36-8.37-16.21-16.25-20.32-3.73-2.09-10.48-2.24-11.77-6.76-.68-3.35,1.66-6.58,3.47-9.41,1.91-2.74,3.9-5.56,5.25-8.63,2.67-5.81,3.79-12.17,5.64-18.26,1.07-3.44,2.38-6.55,3.43-9.9,1.05-3.28,1.33-6.43,1.65-10.09,1.36-17.13,1.45-40.55-.51-58.49-.81-7.24-4.58-13.31-6.52-20.23-6.34-22.55-20.21-43.49-43.19-51.52C603.98.98,598.92-.05,588.5,0c-5.22.09-10.02-.08-14.65.59-4.7.65-8.52,2.36-13.07,3.4-5.53,1.31-11.2,1.97-16.53,3.9-23.26,7.9-51.54,24.37-72.01,39.79-6.87,5.09-13.93,11.68-14.5,20.83-1.17,19.59,6.68,18.3,21.89,23.23,2.58.78,5.75,1.84,7.06,4.18,1.34,3.15-.09,6.44-.5,10.11-.19,1.26-.33,2.54-.47,3.81-.54,5.75-2.09,11.35-3.74,17.14-1.68,6.04-3.83,12.38-3.69,18.75,0,6.18,2.78,11.36,3.93,17.2.79,3.68.79,7.52,1.26,11.25.61,5.48,2.5,10.46,2.73,16.17.28,6.59-1.52,13.87,1.9,19.92,1.66,3.11,4.65,5.27,6.96,7.51,2.1,2.01,3.56,4.46,4.86,7.06,1.04,2.06,2.25,4.27,3.46,6.21.76,1.26,1.43,2.38,1.81,3.29.48,1.11.52,1.9.05,2.48-.77,1.16-4.46,1.91-6.45,2.39-3.49.81-6.84,2.12-10.56,3.21-6.2,1.69-12.53,3.39-18.54,5.6-6.01,1.96-11.52,6.44-16.49,10.63-4.25,3.42-8.04,7.04-10.9,11.57-2.69,4.27-5.76,8.24-8.53,12.48-2.75,4.62-6.03,8.99-10.86,11.57-21.13,10.6-41.22,22.92-63.02,32.91-4.72,2.05-9.07,4.87-13.62,7.23-10.37,4.62-4.06-7.48-6.97-12.01-2.94-3.54-7.2.82-9.29,3.49-1.77,2.08-3.49,4.22-5.37,6.2-4.48,4.6-10.21,7.92-15.35,11.76-3,1.9-9.51,7.2-10.85,1.11-.61-2.46-.26-6.48,0-9.95.26-2.98.66-5.95,1.67-8.75,1.57-4.36,4.08-8.05,6.43-12.29,3.02-5.3,5.71-10.28,8.01-15.8,4.48-10.21,2.98-20.85-4.7-29.02-4.2-4.78-9.07-9.18-11.77-15-1.37-2.64-2.89-5.2-4.94-7.39-2.85-3.12-6.64-5.57-8.58-9.13-2.81-4.5-1.19-10.93-5-14.79-3.6-3.07-9.87-1.95-14.4-2.79-4.98-.55-9.6-2.11-13.77-5-3.59-2.23-6.66-5.48-10.07-8.03-5.48-4.05-11.57-7.59-17.71-10.5-2.72-1.27-5.7-2.19-8.56-2.91-3.39-.79-6.45-2.08-8.72-4.66-1.64-1.78-2.97-4.08-4.89-6.07-2.28-2.45-5.37-3.94-8.37-5.31-2.88-1.28-6.08-2.57-9.02-2.95-4.12-.64-8.23.78-11.9,2.59-5.32,2.5-9.39,5.66-14.18,9.35-3.56,2.54-7.42,4.51-11.48,6.25-5.54,2.4-11.39,4.55-16.56,7.71-4.67,2.65-8.3,6.72-12.35,11.1-4.06,4.54-8.01,9.37-11.76,14.18-2.69,3.5-5.02,6.56-7.41,9.98-5.02,6.82-8.59,14.54-12.36,22.25-3.14,6.89-6.64,13.57-7.81,21.03-1.32,7.27-.36,15.75-2.11,23.16-1.05,4.44-2.66,8.55-3.38,13.09-.44,2.69-.71,5.38-1.23,8.1-.69,3.8-1.7,7.55-3.61,10.95-3.55,6.13-8.62,11.49-12.42,17.41-7.47,11.4-19.02,18.95-27.82,29.37-9.91,12.18-17.83,29.93-23.08,43.6-2.75,7.44-3.63,15.31-4.18,23.26-.79,10.39-.53,20.48,1.78,30.69,1.21,5.65,2.73,11.18,5.86,16.01,8,11.99,21.02,22.53,26.47,36.44,5.47,11.63,7.52,20.08,2.81,32.39-7.52,18.32-19.98,35.72-23.44,55.34-2.75,16.59-1.59,33.84,5.97,49.14,3.34,6.66,7.48,13.19,14.15,16.85,2.49,1.36,5.29,2.13,8.17,2.81,4.8,1.04,9.22,2.19,13.79,3.69,9.59,3.26,20.64,2.48,29.97-.96,1.85-.6,3.96-1.4,5.6-2.42,5.87-3.67-2.52-6.63-5.5-8.47-4.93-2.92-8.01-8.3-9.02-14.39-1.47-7.07,1.45-17.2,9.87-17.52,7.09.02,11.47,7.44,15.06,12.78,8.21,13.15,21.23,24.32,37.18,25.45,5.83.45,12.77.39,17.46-3.37,5.5-4.57,1.18-8.39-1.52-12.89-2.69-4.58-1.94-10.54.24-15.25,3.44-7.62,11.93-12.48,20.2-12.18,6.52.39,13.19,2.74,18.14,7.07,4.38,4.03,6.84,9.77,8.82,15.28,1.21,3.54,1.68,7.1.75,10.81-1.32,5.42-4.35,10.47-7.36,14.79-5.14,6.68-12.66,11.52-18.34,17.86-6.23,6.37-10.09,13.77-7.49,22.21.73,2.93,3.19,6.43,5.92,6.95,4.25.8,6.27-4.45,7.32-7.83,2.15-9.3,7.8-16.79,17.23-19.49,4.16-1.2,8.59-1.71,12.84-2.57,6.08-.99,11.53-4.01,16.78-7.22,4.37-2.64,9.2-5.45,12.61-9.08,3.07-3.19,5.03-7.27,6.42-11.44,1.88-5.45,4.11-10.96,4.22-16.8-.02-5.02-1.85-9.46-2.84-14.32-.97-4.71-1.25-9.99-1.62-14.91-.13-5.16-1.25-16.27,2.27-19.41,2.49-1.68,5.91,2.13,7.36,4.43,4.53,6.63,4.97,15.05,6.95,22.57,1.2,4.3,2.72,8.19,3.23,12.71.54,5.51.47,12.37-.85,17.53-.67,2.8-1.49,5.27-1.9,8.41-.4,3.03-.29,5.87-.14,9.1.6,7.27,1.17,14.2,4.19,20.19,2.07,3.51,4.45,6.38,7.39,9.46,2.35,2.38,4.82,4.9,7.97,6.18,5.37,2.27,10.47-.1,10.46-6.04.03-1.96-.41-4.11-.94-6.28-4.77-15.21.16-30.89,4.89-45.22,2.5-7.33,6.15-13.65,6.43-21.38.71-12.92.24-28.76-3.32-41.39-.92-2.86-2.18-5.59-2.06-6.46.36-1.75,7.29,4.71,9,6.41,3.56,3.39,6.5,7.19,9.29,11.24,6.43,9.57,13.25,18.7,17.55,29.26,1.14,3.37,1.11,6.7-.35,10.02-1.83,4.15-4.73,8.23-6.58,12.49-8.22,21.48-14.5,44.48-19.39,66.33-1.75,9.1-2.28,18.77-3.14,28.04-.77,10.51-3.35,20.63-4.84,31.11-3.42,23.92-2.16,47.97-4.85,72.41-.97,6.28-3.13,12.05-4.02,18.3-2.74,24.75-3.56,49.34-10.58,73.35-13.34,44.7-36.61,86.34-59.75,126.43-28.22,47.9-61.79,97.13-101.76,137.03-8.42,7.91-18.49,13.29-27.22,20.56-3.67,2.99-8.34,6.76-7.84,11.66.33,3.15,2.25,7.09,2.83,10.52.6,3.24.53,6.68,1.09,9.93.64,4.27,1.89,7.92,3.72,12.29,5.42,11.71,11.29,24.82,18.72,35.28,5.64,7.44,13.9,14.04,21.39,19.79,5.26,3.94,10.15,6.93,16.05,9.86,16.3,7.81,35.39,14.29,53.67,14.96,8.22.51,5.52,4.54,1.73,9.13-2.56,3.02-4.66,6.79-8.55,8.15-1.67.57-3.88.67-6.51.64-2.97-.03-6.43-.11-9.56-.15-13.19-.67-22.89,2.65-31.07,13.44-10.29,13.59-16.4,29.89-25.75,43.8-4.57,7.22-9.65,14.16-13.89,21.67-2.14,4.01-4.14,8.21-2.92,11.88.96,3.08,4.22,5.31,7.23,6.96,3.49,1.97,8.05,2.82,11.28-.1,3.91-3.27,6.57-9.95,10.74-13.81,5.03-5.45,11.88-6.28,15.58,1.01,3.41,8.12-.61,18.38-2.36,26.59-1.9,8.39-2.69,17.74-4.16,26.25-1.22,6.12-3.58,11.26-3.81,17.52-.12,6.31,2.31,12,3.53,18.09.96,5.41,1.4,11.03,3,16.35,2.3,8.38,6.72,15.62,11.92,22.78,4.06,5.56,8.89,10.88,14.28,15.02,10.5,8.11,25.86,8.58,37.78,2.74,3.65-1.7,6.29-4.74,8.81-7.62,1.68-1.83,3.36-3.67,4.89-5.63,2.19-2.72,4.64-5.54,4.6-9.09.09-4.09-2.78-7.26-5.26-10.33-2.42-2.91-4.59-6.17-6.03-9.56-1.53-3.52-2.81-6.91-3.41-10.52-.32-2.09-.7-4.83.32-6.65,2.06-2.79,5.89.3,8.26,1.36,2.45,1.38,5.07,2.28,8,3.08,7.57,2.16,15.01,3.31,22.81,3.06,6.77-.1,14.37-.73,20.59-2.32,2.91-.73,5.88-1.84,8.17-3.76,7.53-6.35,1.92-17.22-4.44-22.22-3.38-2.7-7.6-3.36-11.46-4.89-8.57-3.15-12.29-12.28-14.46-20.48-2.73-9.36-2.56-19.82-5.44-29.23-.52-2.12-.88-4.23-.82-6.34.14-4.24,2.02-7.72,3.17-11.91,7.36-25.86,11.46-52.93,25.27-76.37,2.01-3.19,3.58-7.46,5.04-10.61,2.52-5.44,7.1-3.78,11.37-1.58,5.01,2.64,9.81,5.62,14.67,8.53,30.6,18.97,57.32,44.22,90.65,57.12.55.33.76,1.06.25,1.52-.77.9-3.34,2-5.94,3.18-.26.12-.52.24-.78.37-14.15,6.87-19.85,21.07-7.87,33.9,4.05,4.23,10.02,6.89,15.56,9.39,4.83,2.24,9.42,4.63,14.67,5.75,29.1,5.01,60.2-1.12,87.46-7.78,5.65-1.36,11.34-2.53,17.17-2.92,3.07-.27,6.21-.35,7.97.25,1.64.46,2.19,1.79,1.19,3.51-.91,1.74-2.85,3.99-4.7,6.2-4.15,4.82-7.85,10.35-12.6,14.59-7.16,6.59-18.06,7.07-25.43,13.81-3.84,3.76-6.93,8.66-7.94,13.88-.86,4.16.57,8.02,2.24,11.94,1.63,4.18,4.04,8.49,7.73,11.35,5.16,4.23,11.81,5.67,17.93,7.9,5.68,2.2,10.98,4,17.01,4.15,11.55.32,24.82.72,35.99-1.07,4.71-.98,9.02-2.73,13.79-3.7,4.43-.85,8.99-1.28,13.43-2.07,5.26-.85,10.18-2.15,15.12-3.99,16.56-6.47,34.73-17.42,48.36-29.43,5.11-4.54,6.45-11.39,7.08-17.91.91-7.42.76-15.45.56-23.12-.31-7.16-.51-14.75-1.75-21.7-.76-3.59-1.99-7.06-2.76-10.67-.8-3.4-1-6.97-1.33-10.43-.71-6.32-2.88-13.03-1.32-19.38.61-2.9,1.49-5.84,1.74-8.89,1.11-16.04-1.17-33.77-.76-50.23.19-3.22.09-7.3,1.76-10.08,1.02-1.7,2.81-2.72,5.35-3.21,3.69-.66,7.54-.49,11.23-1.22,5.44-.93,9.95-2.82,14.98-4.13,4.89-1.23,9.65-2.09,14.4-3.9,8.67-3.19,17.07-7.73,24.76-12.7,6.64-4.28,12.92-9.03,18.96-14.22,48.4-40.1,63.57-109.19,112.23-146.98,22.47-17.21,50.01-26.27,72.92-42.82,25.13-18.45,52.78-39.17,70.38-66,3.83-5.64,4.81-14.27.1-19.63ZM543.61,257.19l.04.02c.94.51,2.24,3.07,2.92,4.67,1,2.35,2.69,4.66,3.87,6.88,2.41,4.93-.8,4.05-2.83.84-1.04-1.5-1.8-3.17-2.65-4.77-.92-1.76-1.98-3.55-2.32-5.13-.21-.84-.49-3.33.98-2.51ZM593.73,38.68c1.31-2.26,4.03-4.86,6.22-6.1,1.4-.81,2.27-1.05,2.46-.79v.02c.16.46-.32,1.07-.61,1.6-.5.8-1.1,1.67-1.64,2.5-1.27,1.88-2.43,4.26-3.89,5.74-3.28,3.27-4.56.23-2.54-2.97ZM50.75,438.18v.06c-.13,3.8-2.09,8.17-3.53,11.78-3.88,9.6-1.55,20.68-1.93,30.71-.03,1.76-.16,3.8-.62,5.42-.42,1.49-.96,1.98-1.48,1.04-1.08-2.4-1.14-5.32-1.53-7.93-.95-6.96-.17-14.61.59-21.62.84-6.45,4.48-12.56,6.75-18.58.73-1.67,1.87-4.37,1.76-.89ZM64.07,483.13l-.02.02c-1.02.79-1.5-2.5-1.47-5.17,0-1.74,0-3.54,0-5.28-.09-2.08.29-5.2.84-5.63.47-.49.75.01.99.61.64,1.9.5,4.24.52,6.58-.08,2.63.33,7.19-.86,8.86ZM767.23,532.36l-.04.07c-2.96,4.89-6.64,9.48-10.61,13.68-4.65,4.75-9.43,9.1-15.59,9.33-7.39.09-11.65-5.93-13.7-12.3-1.07-2.85-2.12-8.26-1.01-10.92.08-.17.19-.31.35-.38.51-.19,1.21.97,1.93,2.67.92,2.18,1.92,4.85,3.45,6.83,3.33,4.32,9.57,6.55,14.79,4.8,3.22-1.11,5.88-3.39,8.38-5.64,2.4-2.18,4.33-4.09,6.17-6.53,1.65-2.1,3.43-4.53,5.57-6.11,3.68-2.51,1.36,2.93.31,4.49ZM773.06,503.97l-.03.06c-1.93,3.69-3.53,8.37-5.36,12.19-1.5,3.1-3.3,6.05-5.33,8.85-3.94,5.12-11.29,13.59-18,13.81-3.53.19-6.02-2.19-7.42-5.28-1.33-3.13-4.54-11.2-1-13.49,2.04-.8,4.47.54,6.62.66,4.56.46,11.78-2.41,15.72-4.75,4.08-2.56,4.41-6.49,6.08-10.31,1.43-3.06,5.9-4.98,9.05-4.5.86.47-.02,1.93-.33,2.76ZM741.59,414.39l.06.02c2.22.81,4.7,3.86,6.31,6.03,1.06,1.65,4.36,5.59,1.34,6.57-1.14.39-3.13.45-5.03.41-1.9-.09-4.17-.16-5.45-1.73-1.92-2.27-1.94-12.84,2.76-11.29ZM730.59,435.49l.08-.02c3.95-1.16,8.22-1.82,12.03-2.95,3.52-1.24,6.65-2.47,10.27-.7,2.04.89,3.99,2.09,6.03,3,2.27,1.02,4.53,1.97,6.6,3.29,2.94,1.83,5.51,4.13,8.56,5.73,3.17,1.79,7.02,2.28,10.07,4.27,4.34,2.81,5.04,9.22,4.15,14.06-.78,3.13-3.07,5.38-4.27,8.31-1.15,2.58-1.5,5.48-3.15,7.84-2.45,3.56-6.66,5.93-8.51,9.97-1.04,2.07-1.7,4.13-3.15,5.96-2.3,2.91-5.78,5.03-7.82,8.21-2.19,3.41-3.68,8.19-7.67,10.2-2.94,1.56-6.57,1.7-9.85,1.51-4.68-.16-8.65-2.21-12.25-5.21-3.19-2.46-6.44-5.43-9.64-7.74-2.66-1.97-5.18-2.91-6.83-5.49-.97-1.46-.73-3.84,1.44-3.66,2.44.3,4.54,2.12,6.75,3.27,5.58,2.97,12.2,6.04,18.34,7.43,2.03.43,4.36.72,6.29.04,3.18-1.11,2.48-4.13.16-6-2.1-2.01-6.55-3.1-7.42-5.76-.56-1.66.59-4.44,1.26-6.34,1.59-4.56,4.48-4.58,8.3-2.33,1.75.97,3.5,1.96,5.11,2.51,2.5.86,5.57.79,4.68-2.33-6.44-11.9-24.97-18.57-36.7-23.75-2.58-1.38-5.93-2.34-7.4-4.97-.87-1.77.79-3.46,2.31-4.32,1.76-1.07,3.83-1.09,5.77-1.3,1.39-.16,2.69-.12,4.07.03,1.46.14,2.97.15,4.53.53,3.34.92,6.69,2.26,9.95,3.58,4.86,2.12,9.68,4.37,14.37,6.48,3.1,1.26,6.66,2.87,10.01,2.58,2.8-.45,4.01-3.19,2.98-5.71-1.4-3.63-4.61-6.18-7.96-8.12-4.99-2.81-10.99-2.15-16.56-3.08-5.64-1.04-10.86-4.19-16.63-2.34-2,.4-4.46,1.92-6.33.89-1.34-1-.48-2.98.47-4,1.78-1.98,4.51-2.69,7.55-3.56ZM706.16,466.81l.04-.06c2.74-3.39,8.85-3.36,12.65-2.09,3.47,1.32,6.74,3.54,9.91,5.22,3.73,1.82,7.24,4.89,6.35,9.45-.61,2.68-2.27,5.89-5.16,6.55-2.77.51-4.9-1.4-7.65-2.64-.64-.3-1.28-.58-1.94-.86-5.69-2.37-18.67-8-14.18-15.58ZM694.49,349.73l.02-.06c.7-1.88,2.03-3.46,3.42-4.93,4.01-4.35,10.09-10.67,14.22-15.28,2.55-2.99,3.73-6.96,6.69-9.77,1.51-1.43,2.8-2.06,3.42-1.66.26.61-.29,1.25-.85,2.2-7.2,8.97-14.44,18.37-21.29,27.45-1.1,1.42-2.3,2.99-3.52,4.25-.64.65-1.18,1.04-1.59,1.12-1.04.22-1.28-1.35-.53-3.31ZM684.13,396.46l.02-.08c.94-3.16,1.76-6.73,2.56-9.87.96-.99.63,7.76.69,9.62-.05,1.54.31,6.89-1.93,6.61-2.04-1.15-1.99-4.15-1.34-6.29ZM483.8,328.16l.02.05c1.72,3.92,2.22,8.58,3.37,12.71.69,2.53,1.84,4.46,2.16,6.82.87,10.93,1.4,23.24,2.11,34.02.13,2.02.13,3.39-.1,3.51-.03.02-.06.02-.1,0-.22-.13-.54-.98-.88-2.29-.95-3.65-1.33-8.06-1.84-11.89-1.26-11.34-3.9-22.07-5.76-33.14-.18-1.14-1.74-15.81,1-9.79ZM459.81,261.77l.03.05c1.7,2.8,2.13,6.89,3.2,10.06,2.19,6.63,5.9,12.71,8.78,19.15,1.39,3.1,3,6.57,3.27,9.93.06.98-.11,1.5-.49,1.44-.85-.26-1.82-1.97-2.43-2.99-.87-1.52-1.72-3.22-2.58-4.79-4.11-7.64-7.19-15.85-10.19-24.15-.65-1.95-1.28-4.2-1.47-6.18-.26-1.7.26-4.73,1.88-2.51ZM457.16,524.49c3.01,1.8,5.27,4.19,8.48,5.13,1.4.43,2.91.58,4.4.57,4.68.06,9.14-.94,13.38-2.76l.07-.03c1.91-.76,3.89-1.54,6.11-2.1,8.72-2.07,18-3.5,26.65-5.2,3-.58,5.91-1.2,8.87-1.8,15.36-3.3,32.35-4.2,48.41-6.44,6.25-.86,12.26-2.01,18.34-3.46,17.37-4.16,36.43-8.16,54.27-12.41,6.89-1.68,13.93-3.23,20.87-4.49,6.84-1.3,13.69-2.55,20.37-4.57,2.91-.88,5.67-2.25,8.14-4.04,2.17-1.54,4.27-3.44,6-4.05,2.98-1.06,5.19,1.25,7.17,3.7.8,1.08,1.52,2.22,1.98,3.49.68,1.85.68,4.08.66,6.4-.02,3.86.19,7.4-3.04,9.46-1.74,1.14-4.43,1.8-6.86,2.75-2.31.88-4.55,1.92-6.8,2.94-42.21,20.8-87.04,37.45-131.84,51.09-20.28,6.11-40.05,10.71-60.46,15.3-3.48.72-6.8,2.25-10.01,3.22-5.75,1.85-11.8,1.11-17.27-1.33-1.93-.79-4.04-1.65-6.1-2.28-10.12-2.95-18.35-5.55-27.48-9.22-6.22-2.49-12.99-5.61-19.24-8.49-32.23-15.06-64.94-28.61-98.12-43.07-5.3-2.55-8.54-5.42-5.27-11.42,2.67-4.69,3.32-10.39,2.13-15.63-.61-2.76-1.77-5.34-2.59-8.03-1.62-5.42-1.55-12.58.3-17.78,1.21-3.23,3.44-5.9,5.8-8.37,1.55-1.65,3.18-3.26,4.7-4.86,1.5-1.61,3.66-3.78,5.71-3.79,2.71-.07,5.07,1.5,7.97,2.87,5.54,2.46,9.85,7.22,15.02,10.5,2.4,1.58,4.89,2.96,7.38,4.42,28.12,16.3,52.37,38.35,79.16,56.81,3.94,2.62,8.6,4.6,12.75,7.01ZM573.95,564.06v.04c-.18.86-.64,1.66-1.1,2.41-.79,1.23-1.79,2.62-3.08,4.5-3.48,5.03-8.07,11.67-11.67,16.87-2.37,3.05-4.05,7.46-7.77,7.22-2.36-.26-4.63-1.64-6.68-2.83-2.39-1.5-4.6-2.88-6.45-5.54-1.18-1.73-2.17-3.63-3.28-5.4-1.11-1.91-2.54-3.89-2.4-5.92.68-4.75,10.06-5.47,13.96-6.21,6.54-.86,11.73-5.38,17.93-7.23,2.71-.85,10.98-2.54,10.54,2.07ZM288.72,503.62c2.04,2.11,5.48,2.67,8.14,3.89l.07.03c7.11,2.81,8.78,4.2,8.52,12.12-.06,3.33-.03,7.01-3.75,6.52-3.91-.87-7.56-2.81-11.55-3.58-8.53-1.36-14.52-1.93-21.67-7.65-3.6-2.83-6.37-6.46-9-10.2-3.41-4.8-6.21-9.54-7.66-14.93-3.39-12.05-4.7-27.9-2.25-38.94.91-3.42,2.23-6.95,4.24-9.94,1.26-1.83,2.86-3.37,4.43-4.92,2.04-2,4.13-4.09,6.52-5.54,3.35-2.01,6.89-3.26,10.57-4.26,6.4-1.11,13.58-.84,20.25-.32,3.21.39,5.56,1.55,8.3,2.4,2.09.68,4.43,1.06,6.63,1.46,4.72.81,8.43,3.8,12.77,5.75,7.28,2.82,10.45,5.17,2.46,10.57-8.31,5.69-11.95,16.51-11.68,26.44.05,3.7,1.52,6.92,2.7,10.34,2.28,5.8,1.39,12.57-2.47,17.3-1.55,2.13-3.83,4.02-6.6,3.52-3.26-.61-6.46-1.8-9.73-2.7-2.13-.61-4.31-1.46-6.51-1.68-2.72-.37-5.01,1.96-2.74,4.31ZM310.61,517.65c.38-1.86,1.3-3.52,3.42-2.63l.07.03c1.91.85,6.25,3.89,3.96,6.2-1.1,1.02-3.44,1.82-5.04,1.77-2.7,0-2.85-3.37-2.41-5.37ZM130.29,376.9c.07,1.87.19,3.71.85,5.46l.02.06c1.55,3.68,4.09,7.05,5.82,10.8.79,1.64,3.06,5.44,2.19,6.04-.16,0-.34-.08-.5-.18-4-2.83-6.68-9.06-7.85-13.89-2.93-13.41-2.46-27.74.14-41.09,2.5-11.13,7.13-22.51,11.63-32.47,5.18-12.28,13.57-22.65,20.02-34.12,2.38-4.81,5.48-9.4,7-14.35,1.91-7.48.47-15.63.06-23.34-.05-1.43-.18-3.34.11-4.51.05-.14.1-.2.21-.12,1.21,1.5,2.47,6.81,2.88,9.37.51,5.07.33,10.7.03,15.53-.57,5.39-3.37,9.88-5.52,14.93-1.7,3.71-3.61,7.19-6.25,10.33-3.25,3.89-6.74,7.69-9.48,12-7.97,12.17-12.57,25.87-16.54,39.75-1.97,7.76-4.48,14.66-4.83,22.77-.18,5.08-.15,12.16,0,17.02ZM183.04,467.15c-.88,1.23-3.04,3.07-4.66,4.48-2.35,2.05-4.65,4.13-6.76,6.45l-.06.06c-11.45,12.5-16.42,27.62-20.88,43.09-.94,3.36-2.67,6.46-3.74,9.65-.73,2.13-1.09,4.46-.94,6.77.6,10.25,5.75,19.24,10.75,28.04.85,1.43,1.68,2.66,2.74,3.93,3.35,3.87,7.76,7.69,11.45,11.45,1.92,1.77,4.68,5.86.22,3.93-2.01-.93-4.01-2.84-5.85-4.4-13.15-11.95-23.49-32.2-21.2-50.23,2.97-16.61,13.62-39.33,23.45-51.83,3.38-3.8,7.35-7.76,11.34-11.08,1.1-.95,4.09-2.63,4.59-1.92.37.51-.16,1.15-.46,1.61ZM197.27,284.13c2.64-4.41,3.09-9.77-.16-13.89-1.58-2.21-3.34-4.35-3.79-7.09-.84-7.37.98-14.92-.5-22.72-.66-4.75-3.55-8.73-6.31-12.48-1.66-2.33-3-5.11-4.01-7.85-2.17-5.17-2.52-11-3.7-16.36-.31-2.21-.87-3.93.36-5.62,1.36-1.72,5.26-2.43,7.82-2.38,6.6-.07,13.37-.53,19.82.88,10.68,2.68,21.86,9.86,30.95,16.58,3.69,2.68,7.24,6.23,11.06,8.36,2.46,1.38,5.7,2.14,8.48,3.18,2.83,1.02,5.68,2.25,8.67,2.52,3.03.52,7.38-1.52,9.96-.63,3.85,1.46.49,10.5,3.06,14.68,2.12,4.36,7.02,7.06,10.05,10.97,3.3,4.26,4.91,9.56,8.67,13.53,5.19,5.96,12.29,10.37,13.12,18.05.89,6.69-3.63,12.87-6.43,18.54-8.37,16.08-16.91,33.32-14.22,52.41.64,7.26,2.22,11.48,7.16,16.97,3.97,4.79,7.63,9.74,12.75,13.18,6.35,4.22,12.67,10.16,18.09,15.84,1.79,1.81,4.95,4.31,5.79,5.33.18.23.31.42.3.67-.13.31-.43.38-.85.43-4.55.04-12.18-.74-17.4-1.14-3.95-.36-6.42-1.21-9.9-2.03-3.66-.89-7.85-1.4-11.76-1.69-15.39-1.16-28.89.13-43.07,6.15-3.84,1.56-7.81,3.12-11.47,4.97-1.51.79-4.44,2.41-5.26,1.42-.96-.67-.62-3.54-.19-5.06,1.02-3.96,2.96-7.56,3.38-11.69.76-7.67.84-15.23-.77-22.78-1.04-5.35-2.78-13.68-3.86-18.4-.69-3.71-2.53-6.08-4.66-8.96-3.98-5.11-3.8-12.47-3.17-18.65.54-4.17,2.76-7.95,2.99-12.17.27-3.08-1.81-6.08-4.96-5.92-5.05.36-9.41,4.19-13.72,6.71l-.07.04c-4.65,3.17-10.71,1.21-14.5-2.22-3.33-2.98-5.3-7.41-6.05-11.8-.96-6.99,5.23-13.97,8.26-19.87ZM309.87,375.35c-.01-.9.74-1.28,1.97-1.09h.06c3.32.73,6.43,3.19,9.31,5,3.95,2.54,7.34,5.86,10.68,9.66,2.23,2.52,4.95,5.47,6.79,8.12,2.53,3.94-4.09,1.01-5.38-.18-2.87-2.18-5.04-5.11-8.42-6.59-1.58-.78-3.24-1.51-4.67-2.54-2.33-1.61-4.14-4.01-6.17-6.26-1.47-1.76-3.92-3.83-4.18-6.12ZM214.07,409.25v.08c-1.15,9.87-5.73,19.44-8.92,29.06-1.86,4.96-5.1,9.06-8.02,13.49-1.02,1.55-2.04,3.1-3.14,4.59-.66.94-3.9,5.05-4.48,3.63-.07-.46.34-1.45,1.11-2.67,1.36-2.16,3.23-4.18,4.8-6.22,2.9-3.66,5.37-8.7,7.62-13.16,2.51-5.26,5.45-10.87,6.26-16.43.52-3.41.53-7.01,1.69-10.28.82-2.46,1.76-3.82,1.93-6.85.18-6.75-.11-17.44.13-24.25.09-1.32.32-2.92.65-1.08.26,1.62.37,3.86.4,5.66.05,8.18.79,16.35-.05,24.41ZM276.15,605.33l-.04-.08c-2.32-4.17-3.4-8.76-5.6-12.97-3.68-7.66-9.26-14.5-15.81-20.05-1.65-1.49-3.8-3.28-4.36-5.25-.31-2.07,2.39-.58,3.67.42,2.52,2.01,4.98,4.71,7.28,7.02,1.64,1.7,3.23,3.43,4.64,5.26,3.39,4.36,6.11,9.67,8.74,14.52,2.55,4.42,4.82,10.04,6,14.82,1.03,4.51-3.06-1.02-4.52-3.68ZM158.25,1400.44c4-4.47,10.58-4.73,15.87-7.05l.08-.03c2.67-.93,7.7-2.78,9.85-.72.9,1.36-2.45,3.57-3.34,4.58-3.23,2.66-4.47,7.15-7.77,9.71-3.04,2.15-6.4,1.15-10.39,1.09-2.05-.16-4.98.04-6.25-1.71-1.02-1.51.64-4.46,1.94-5.88ZM154.33,1418.8c-.36-1.04-.94-2.08-.34-3.03l.02-.03c1.19-1.35,4.97-1.25,7.16-1.28,2.55-.01,5.12.01,6.65.54,1.53.42,2.21,1.59,1.65,3.15-.47,1.51-1.26,3.09-1.85,4.6-1.08,2.66-1.66,5.84-2.04,8.82-.37,1.36-.33,13.88-2.82,11.19-1.51-1.95-2.52-4.82-3.65-7.16-2.02-3.93-2.23-8.67-3.32-12.81-.39-1.34-.95-2.7-1.46-3.98ZM162.44,1551.27l-.03-.07c-1.64-4.43-1-9.51-1.81-14.11-.68-3.67-2-6.71-2.46-10.35-.3-2.25-.48-4.64-.4-6.9.14-2.73.83-5.02,4.11-3.93,1.26.37,2.58.98,3.81,1.49,2.15.94,4.38,1.58,6.68,2.15,10.82,2.65,22.3,5.44,31.22,12.27,3.87,3.12,3.35,7.98,2.77,12.64-.57,5.27-2.73,9.16-8.54,7.53-2.15-.52-3.96-1.33-6.18-1.42-5.29.11-11.63,1.4-17.3,2.22-.87.15-1.71.3-2.55.5-4.39,1.2-7.29,3.44-9.32-2.02ZM217.64,1586.48l.06.06c6.66,6.12,1.53,8.31-4.54,10.38-1.38.53-2.79,1.17-4.18,1.59-1.39.43-2.8.57-4.2.21-2.16-.55-4.02-1.95-6.43-3.05-1.46-.68-2.95-1.28-4.41-1.94-9.21-3.82-16.91-10.56-22.33-18.9-1.62-2.39-3.13-4.9-4.49-7.44-1.16-2.19-2.58-5.33.15-6.77,3.96-2.25,31.22-2.3,35.37-.1,3.27,1.61,3.82,5.64,4.82,8.81.89,2.98,2.62,6.16,4.31,9.04,1.77,3.11,3.49,5.86,5.88,8.12ZM215.58,1513.8l-.03.08c-1.74,5.37-2.87,13.43-10.19,9.16-2.31-1.28-4.75-2.81-7.38-3.73-9.85-3.42-19.97-6.81-30-8.53-2.72-.5-8.03.17-9.01-2.52-.31-1.07.29-2.63.94-4.39.79-1.99,1.49-4.19,1.89-6.4,2.55-14.14,3.25-28.56,7.73-41.81.52-1.94.97-3.93,1.32-5.98,1.02-5.9,1.39-11.97,2.39-17.88.83-5.29,2.61-10.53,4.83-15.82,1.52-3.62,3.27-7.31,5.2-10.7,1.49-2.57,2.81-4.72,4.63-6.81,1.4-1.6,3.09-2.82,4.78-4.05,2-1.51,4.52-2.83,7-1.95,13.37,6.76,31.92,24.17,39.99,36.82,3.78,5.76,4.41,12.77,3.18,19.5-.74,4.77-2.42,8.85-4.24,13.34-1,2.47-1.96,4.94-2.93,7.38-5.84,15.1-14.52,29.07-20.08,44.27ZM242.29,1507.14l-.04.03c-1.63.99-4.65.83-6.62.43-3.99-.79-3.14-4.31-1.92-7.81.56-1.64,1.25-3.23,1.98-4.8.65-1.41,1.34-2.81,2-4.22.69-1.55,2.79-6.28,3.79-4.93.74,1.2.71,2.63.91,4.1.13,1.41.21,3,.32,4.81.14,2.3.29,4.81.41,6.89.08,2.19.44,4.58-.84,5.5ZM260.32,1536.17l.08.04c3.04,1.39,5.9,3.6,8.75,5.44,5.82,3.51,7.45,6.18-.55,6.11-4.81-.25-9.71,0-14.38-.39-2.41-.27-4.46-1-6.7-1.67-2.09-.71-5.32-1.06-6.38-2.77-.65-1.85,3.48-4.19,5.3-5.32,4.69-2.81,8.69-3.94,13.88-1.43ZM249.34,1525.51l-.03.05c-1.13,1.85-3.66,2.35-6.09,3.79-.86.5-1.69,1.05-2.48,1.65-1.79,1.36-3.4,2.87-4.86,4.56-2.69,2.86-5.39,8.7-9.95,6.69-1.66-.79-2.95-2.36-3.85-3.95-1.89-3.32-1.95-6.9-1.2-10.6.53-2.74,1.54-5.71,3.55-7.1,2.39-1.64,5.18-1.71,8.1-2.12,2.16-.24,4.46-.41,6.55-.49,2.95-.1,5.33-.13,7.16.84,2.37,1.3,4.34,4.19,3.11,6.69ZM254.27,1407.73l-.03.08c-.95,2.68-2.06,5.22-2.72,7.98-.82,2.59-.57,7.44-3.12,7.42-1-.05-2.25-1.08-3.51-2.59-2.06-2.45-3.71-5.22-5.58-7.8-6.38-8.61-15.66-14.57-23.76-21.37-6.58-4.99-8.56-7.29-2.79-14.32,4.1-5.01,7.22.05,10.74,2.8,3.47,2.73,8.04,4.08,11.46,7.1,4.09,3.44,8.35,6.64,13.16,9.03,2.45,1.25,4.81,2.06,6.05,3.64,1.92,2.32,1.05,5.46.1,8.04ZM273.1,1369.72l-.03.07c-2.13,3.57-3.8,7.86-6.1,11.41-2.34,3.93-5.9,8.51-11.01,6.41-9.8-4.82-19-11.43-28.26-16.91-2.24-1.38-5.34-2.25-7.07-4.18-1.6-2.62,9.06-2.89,10.76-3.22,4.13-.41,8.34-.75,12.49-1,7.38-.58,13.9-.11,21.04.79,4.37.53,12.24-.18,8.19,6.62ZM505.9,1464.2c-4.7.53-9.37,1.57-14.21,2.26-3.39.5-6.83.83-10.22,1.26-5.07.42-9.24,2.98-13.98,4-5.43.8-10.82.89-16.65,1.17-10.72.38-22.59.3-30.84-.66-1.58-.18-3.08-.55-4.56-1.1-3.59-1.35-7.08-3.31-10.75-4.73-3.38-1.35-6.31-2.98-9.78-4.78-3.51-1.91-8.18-3.95-9.18-8.13-1.07-5.11,6.38-8.21,10.34-10.01,3.23-1.22,6.11-2.87,9.37-3.75,2.42-.72,4.98-.28,7.4.39,4.06,1.07,8.18,2.68,12.45,2.92,2.03.16,4.05.15,6.17.16,2.84.09,6.25-.4,8.62,1.16,1.62,1.09,2.58,2.81,4.17,3.95,1.14.87,2.76,1.42,4.57,2.27,1.82.84,3.69,1.72,5.56,2.44.98.31,5.25,2.2,4.07.15-.72-1.31-3.62-3.99-5.9-5.36-2.01-1.35-4.6-2.17-6.45-3.6-1.42-1.33,3.98-.95,4.92-1.04,7.18-.11,14.52.08,21.6-.79,4-.66,7.6-2.42,11.44-3.68,1.67-.57,3.44-.98,5.17-1.37,10.66-2.38,19.94-4.88,30.18-9.6,4.53-2.14,9.6-3.98,13.74-6.67,8.71-6.28,1.68,7.5,10.97,12.39,2.21,1.26,4.77,1.8,7.27,2.16,3.19.51,6.72,1.01,4.94,4.73-.37.85-.96,1.85-1.47,2.73-1.28,2.12-2.37,4.58-3.39,6.94-1.28,3.13-2.56,6.83-5.39,8.76-2.37,1.71-5.33,2.12-8.2,2.28-3.17.16-6.35.29-9.44.7h-.08c-7.35,1.18-15.02,1.72-22.46,2.46ZM641.83,1480.23l-.02.07c-2.4,7.22-6.74,12.23-11.66,18.36-4.06,4.63-8.01,10.11-13.28,13.11-14.65,6.34-28.55,14.82-43.19,21.44-4.43,1.98-9.24,3.76-13.88,4.84-4.18,1.04-8.31,1.42-12.46,2.36-4.31.98-7.16,3.12-11.53,2.77-5.07-.55-11.06-1.7-16.22-2.66-4.88-.72-8.44-2.51-12.66-5.17-3.08-1.75-6.47-3.2-9.65-4.77-1.92-.94-4.77-2.15-5.37-3.82-.06-2.23,5.43-3.05,7.23-3.81,8.04-2.85,15.09-8.22,21.48-13.98,5.05-4.7,8.91-4.79,15.34-5.37,5.2-.87,9.58-3.06,14.9-2.87.72-.02,6.48-.34,5.42-1.4-2.45-1.05-7.55-.5-10.61-.48-9.79.2-20.28,3.55-9.07-9.08,5.76-6.66,6.95-14.36,17.13-14.39,8.38-.34,17.05-1.05,24.83,2.41,1.42.5,5.28,1.35,4.74-.25-1.58-2.05-6.15-3.34-8.71-4.53-5.54-3.01-21,.17-22.98-2.67-.69-1.6.71-3.68,1.36-5.23,2.39-5.06,5.57-10.63,7.4-15.97,1.7-5.64,1.46-10.5,8.89-10.58,5.27-.06,9.38-2.33,14.55-2.87,4.4-.39,9.98.03,14.41-.65,2.29-.37,4.52-1.15,6.76-1.64,2.78-.74,5.97.34,4.66,3.71-.81,2.17-2.4,4.15-3.59,6.17-1.92,3.21-3.87,6.65-5.88,9.8-2.01,3.22-4.23,6.23-6.67,9.16-2.38,2.91-5.37,6.4-6.59,9.89-.3.96-.2,1.51.26,1.52,2.58-.82,5.19-5.02,7-7.19,5.41-7.46,10.83-14.97,15.89-22.53,2.99-4.1,4.59-10.02,9.81-11.69,4.34-1.25,9.49-1.73,13.97-1.93,4.95-.24,5.16,3.25,5.07,7.48.06,5.71-.33,11.62.75,17.2.79,3.46,2.27,6.22,2.77,9.63.48,4.73.65,10.87-.59,15.62ZM989.62,1053.77l-.03.06c-6.37,12.99-18.66,22.3-29.27,31.52-15.25,13.21-30.21,26.83-47.48,37.4-31.89,20.08-70.63,35.26-93.35,66.08-40.79,57.73-69.23,136.67-148.22,150.15-16.81,2.96-33.8,4.82-50.3,9.04-7.31,1.36-14.49,3.28-20.92,7.16-9.87,5.57-17.81,13.12-25.89,20.87-25.73,24.62-53.81,44.76-88.66,52.33-5.3,1.52-9.49,3.71-14.61,4.46-19.69,1.97-43.24.35-61.06-3.63-48.21-12.37-80.42-59.28-128.01-72.5-15.22-4.34-35.27-6.92-54.17-3.68-13.04,4.32-26.67,2.36-39.26-1.66-8.9-2.74-18.23-4.13-26.89-7.62-11.35-4.81-22.03-12.1-31.21-20.42-15-13.45-22.92-32.34-31.58-50.24-1.76-4.81-6.68-9.99-5.13-15.3,1.6-3.54,5.61-5.3,8.69-7.51,4.09-2.69,8.04-5.44,11.59-8.38,11.81-9.42,21.78-20.18,31.36-31.72,60.29-62.6,100.34-139.52,136.85-215.51,8.34-19.97,12.66-42.21,17.62-62.89,3.22-12.94,4.05-25.98,4.67-39.46-.12-9.16,2.52-17.46,4.29-26.29,1.43-15.17-.17-31.72,1.34-46.99,1.83-8.64,4.25-17.43,4.6-26.41,1.79-11.02,3.05-22.26,3.22-33.49,3.62-27.91,13.01-55.18,20.81-82.89,2.56-7.6,6.84-14.84,6.36-23-1.49-21.96-14.37-42.04-28.25-58.45-28.52-30.25-66.32-50.85-86.88-87.59-11.43-15.68-8.65-35.08-8.28-54.02.19-5.5,2.81-10.18,4.52-15.3,1.57-4.95,1.81-10.35,5.31-14.33,4.82-5.77,12.41-7.79,19.44-9.57,5.67-1.48,10.55-4.07,16.31-4.94,18.36-1.84,37.59.05,55.36,4.3,7.03,1.42,28.44,7.9,33.05.89,1.05-4.22-3.67-7.53-5.52-11.37-6.91-16.76-21.04-30.85-38.48-36.1-3.32-1.25-7.3-1.8-10.27-3.51-8.03-6.16,3.68-12.28,9.11-14.71,5.3-3.28,10.78-7.05,15.46-11.03,2.21-1.83,3.94-5.35,6.59-6.02.78.3.94,1.25,1.25,2.66.54,3.79.5,8.09,1.83,11.69,2.73,7.95,10.89,13.47,13.93,21.14,2.66,7.89,1.96,20.16,9.29,25.59.83,0,.52-.91.45-1.8-.45-2.35-1.39-6.38-1.57-9.2-.36-7.84-1.57-15.77-6.47-22.11-2.55-5.51-14.99-13.58-6.44-17.72,7.63-1.94,14.45-5.26,21.33-9.03,16.85-8.28,34.45-15.83,49.55-27.16,1.76-1.61,5.01-3.26,6.77-2.66.97.79.58,2.04.07,3.83-8.84,22.25-17.71,45.09-25.97,67.13-2.94,9.65-4.02,16.64-14.61,20.4-4.01,1.64-7.59,5.02-11.9,5.75-3.2.35-5.98-2.12-9.13-1.85-9.43-.14-7.34,2.72-2.9,8.93,19.28,24.65,49.16,36.23,73.12,55.27,6.44,4.98,11.77,10.87,16.72,17.49,3.84,4.21,5.54,9.34,5.15,15.01-.59,3.41,2.12,14.93-4.26,10.73-32.07-20.68-61.33-45.54-94.33-64.6-2.96-1.77-6.05-3.6-8.27-6.3-3.31-3.69-3.22-8.31-6.78-10.02-2.66-1.14-6.21-.13-9.74-.28-6.02.13-11.52-3.34-16.91-5.52-19.5-5.97-52.3-6.78-64.52,12.41-11.29,17.93-11.99,59.14,1.34,76.63,8.36,13.55,19.65,20.07,34.59,24.34,6.38,1.2,13.43,1.91,19.64,3.44,12.64,1.05,18.55-13.55,25.48-11.96,35.21,17.54,72.77,30.93,107.87,48.47,3.32,1.54,6.83,3.67,6.73,7.68-.09,4.95-.76,11.66.78,16.57,1.53,7.04,7.6,10.99,12.84,15.19,23,29.15,52.1,53.37,80.38,77.32,119.76,92.24,212.81,217.33,341.63,298.99,32.04,20.98,65.55,39.16,100.32,54.77,4.71,2.42,12.8,4.49,9.95,11.07ZM385.14,406.03l-.04.08c-1.03,2.04-1.76,4.23-2.39,6.43-.85,2.4-1.24,5.95-3.39,5.47-.69-.22-1.23-.67-1.83-1.22-1.33-1.26-2.62-2.84-3.89-4.31-1.39-1.76-3.88-4.05-3.68-5.97.53-1.59,2.78-2,4.19-2.75,2.28-.99,4.43-2.28,6.62-3.59,8.33-5.17,7.87-.21,4.42,5.86ZM614.92,155.09c-.24,2.26.8,4.5,1.66,6.46.94,2.1.39,3-1.63,3.75-4.7,1.59-4.25,4.56-6.33,7.74-.22.26-.48.48-.8.53-3.18-.39-2.34-11.14-1.87-13.67.69-4.33,2.7-7.53,5.06-11.01,2-2.81,4.22-6.46,7.73-7.3.94-.19,1.71,0,2.09.47l.02.03c1.15,2.09-2.41,5.08-3.67,7.13-1.21,1.73-2.1,3.76-2.26,5.87ZM605.8,197.11l.03.04c2.21,4.09-2.82,11.57-6.16,14.17-1.54,1.21-3.07,1-2.83-1.6.17-1.88.88-3.72,1.67-5.43,1-2.1,4.82-9.49,7.29-7.18ZM408.22,615.87c1.12,2.23,2.57,4.86,2.45,7.35-.12,1.88-1.35,3.08-3.16,3.1-5.25-.32-9.22-5.09-9.54-10.35-.13-1.58.08-3.36,1.12-4.58,3.47-3.84,7.51,1.04,9.09,4.4l.04.07ZM357.8,634.74c.27,2.29.65,5.25-.35,7.09-1.87,2.63-4.78-1.7-5.5-3.44-1.33-3.13-2.18-6.7-2.09-10.13.17-2.52,1.65-3.98,3.6-3.13l.06.02c3.2,1.71,3.72,6.07,4.28,9.58ZM384.36,628.43c.83,2.28.82,6.25-1.14,7.54-1.57.96-3-.08-4.1-1.62-2-2.92-4.12-9.67-1.63-12.62l.04-.04c1.29-1.34,3.04-.08,3.99,1.06,1.36,1.53,2.21,3.68,2.85,5.68ZM439.2,604.68c.93,1.37,3.18,4.01.89,5-1.97.77-6.69.22-8.87-1.69-2.69-1.88-2.22-10.07,2.11-8.56l.07.02c2.04.83,4.34,3.31,5.8,5.22ZM241.37,329.61c-.33-.31-.58-.75-.41-1.2,1.1-1.85,5.13-1.62,7.38-1.76,1.37-.07,2.68-.2,3.97-.42,10.29-2.14,20.67-9.53,29.4-15.79,3.14-2.28,5.65-5.38,8.74-7.73,1.35-1.06,3.88-1.67,3.01.71-.76,1.84-2.71,3.55-4.27,4.92-4.3,3.82-7.87,8.44-12.45,11.61-5.56,3.66-12.63,6.94-18.74,9.58-2.11.86-4.28,1.58-6.53,1.82h-.07c-3.01.29-7.93.16-10.02-1.75ZM205.28,312.58c-1.25-1.51-1.42-4.2-.14-5.68l.05-.05c1.28-1.42,3.76-1.7,5.46-.84,2.36,1.15,2.86,4.6,1.21,6.58-1.56,2.08-4.99,2.02-6.58,0ZM586.01,1507.36c-1.13,2.2-6.62-.25-8.4-1.36-1.83-1.18-4.28-3.83-2.84-5.69,1.65-1.27,3.99.78,5.86,1.83l.08.05c1.48,1.05,5.6,3.28,5.3,5.18Z" style="fill: inherit;"/></g></svg>